<?xml version="1.0" encoding="utf-8"?>
<!-- Generator: Adobe Illustrator 23.0.3, SVG Export Plug-In . SVG Version: 6.00 Build 0)  -->
<svg version="1.1" id="Слой_1" xmlns="http://www.w3.org/2000/svg" xmlns:xlink="http://www.w3.org/1999/xlink" x="0px" y="0px"
	 viewBox="0 0 290 42.3" style="enable-background:new 0 0 290 42.3;" xml:space="preserve">
<style type="text/css">
	.st0{opacity:0.4;}
	.st1{fill:#FFFFFF;}
</style>
<g>
	<path class="st0" d="M285.9,42.3H4.1c-2.2,0-4.1-1.8-4.1-4.1V4.1C0,1.8,1.8,0,4.1,0h281.9c2.2,0,4.1,1.8,4.1,4.1v34.1
		C290,40.4,288.2,42.3,285.9,42.3z"/>
	<g>
		<path class="st1" d="M29,22.7c0.5,0.7,0.8,1.6,0.8,2.6c0,1.6-0.8,2.9-2.3,4s-3.5,1.6-5.8,1.6c-2.3,0-4.2-0.6-5.7-1.8
			c-1.5-1.2-2.3-2.8-2.4-4.7h4.8c0.1,0.8,0.5,1.4,1,1.9c0.6,0.4,1.3,0.6,2.3,0.6s1.7-0.2,2.3-0.5c0.6-0.4,0.9-0.8,0.9-1.4
			c0-0.7-0.2-1.2-0.7-1.5c-0.5-0.3-1.2-0.5-2.3-0.5h-3.2v-3.8h2.9c1,0,1.7-0.1,2.1-0.4c0.5-0.3,0.7-0.7,0.7-1.3
			c0-0.6-0.3-1.1-0.8-1.4c-0.5-0.3-1.2-0.5-2.1-0.5s-1.7,0.2-2.2,0.7c-0.6,0.5-0.8,1.1-0.8,1.8h-4.8c0.1-2,0.9-3.5,2.4-4.7
			c1.4-1.2,3.3-1.8,5.5-1.8c2.4,0,4.3,0.5,5.7,1.6c1.4,1,2.2,2.4,2.2,4.2c0,0.8-0.2,1.6-0.6,2.2c-0.4,0.6-1,1.2-1.8,1.6
			C27.8,21.3,28.5,21.9,29,22.7z"/>
		<path class="st1" d="M43.2,11.7l7.9,18.9h-5.3l-1.4-3.5h-7.6l-1.4,3.5h-5.1l7.9-18.9H43.2z M38.5,22.8h4.2l-2.1-5.2L38.5,22.8z"/>
		<path class="st1" d="M53,11.7h8.1c2.4,0,4.3,0.6,5.7,1.8c1.4,1.2,2.1,2.8,2.1,4.9c0,2.1-0.7,3.8-2,4.9c-1.4,1.2-3.3,1.8-5.7,1.8
			h-3.2v5.5H53V11.7z M63.2,16.6c-0.5-0.4-1.1-0.6-2-0.6h-3.4v4.8h3.4c0.9,0,1.6-0.2,2-0.6c0.4-0.4,0.7-1,0.7-1.8
			C63.9,17.6,63.7,17,63.2,16.6z"/>
		<path class="st1" d="M70.9,11.7h13.9v4.4h-9.1v2.9H84v4.2h-8.2v3h9.1v4.4H70.9V11.7z"/>
		<path class="st1" d="M102.2,22.7c0.5,0.7,0.8,1.6,0.8,2.6c0,1.6-0.8,2.9-2.3,4s-3.5,1.6-5.8,1.6c-2.3,0-4.2-0.6-5.7-1.8
			c-1.5-1.2-2.3-2.8-2.4-4.7h4.8c0.1,0.8,0.5,1.4,1,1.9c0.6,0.4,1.3,0.6,2.3,0.6c1,0,1.7-0.2,2.3-0.5c0.6-0.4,0.9-0.8,0.9-1.4
			c0-0.7-0.2-1.2-0.7-1.5c-0.5-0.3-1.2-0.5-2.3-0.5h-3.2v-3.8h2.9c1,0,1.7-0.1,2.1-0.4c0.5-0.3,0.7-0.7,0.7-1.3
			c0-0.6-0.3-1.1-0.8-1.4c-0.5-0.3-1.2-0.5-2.1-0.5c-0.9,0-1.7,0.2-2.2,0.7c-0.6,0.5-0.8,1.1-0.8,1.8h-4.8c0.1-2,0.9-3.5,2.4-4.7
			c1.4-1.2,3.3-1.8,5.5-1.8c2.4,0,4.3,0.5,5.7,1.6c1.4,1,2.2,2.4,2.2,4.2c0,0.8-0.2,1.6-0.6,2.2c-0.4,0.6-1,1.2-1.8,1.6
			C100.9,21.3,101.7,21.9,102.2,22.7z"/>
		<path class="st1" d="M105.5,11.7h13.9v4.4h-9.1v2.9h8.2v4.2h-8.2v3h9.1v4.4h-13.9V11.7z"/>
		<path class="st1" d="M122.6,11.7h8.1c2.4,0,4.3,0.6,5.7,1.8c1.4,1.2,2.1,2.8,2.1,4.9c0,2.1-0.7,3.8-2,4.9
			c-1.4,1.2-3.3,1.8-5.7,1.8h-3.2v5.5h-4.8V11.7z M132.8,16.6c-0.5-0.4-1.1-0.6-2-0.6h-3.4v4.8h3.4c0.9,0,1.6-0.2,2-0.6
			c0.4-0.4,0.7-1,0.7-1.8C133.5,17.6,133.3,17,132.8,16.6z"/>
		<path class="st1" d="M140.5,11.7h8.4c2.1,0,3.8,0.5,5,1.4c1.2,0.9,1.8,2.2,1.8,3.7c0,0.9-0.2,1.7-0.6,2.4c-0.4,0.7-1,1.2-1.7,1.6
			c1,0.4,1.7,1,2.2,1.8c0.5,0.8,0.7,1.7,0.7,2.7c0,1.7-0.6,3-1.8,3.9s-2.9,1.4-5,1.4h-8.9V11.7z M150.2,16.1
			c-0.4-0.3-0.9-0.5-1.6-0.5h-3.2v3.4h3.2c0.7,0,1.2-0.2,1.6-0.5c0.4-0.3,0.6-0.7,0.6-1.3C150.8,16.9,150.6,16.4,150.2,16.1z
			 M150.7,23.3c-0.4-0.3-1-0.5-1.7-0.5h-3.7v3.7h3.7c0.7,0,1.3-0.2,1.7-0.5s0.6-0.8,0.6-1.4C151.3,24.1,151.1,23.7,150.7,23.3z"/>
		<path class="st1" d="M163.7,11.7v12.2l7.6-12.2h5.5v18.9H172V18.4l-7.6,12.2h-5.5V11.7H163.7z"/>
		<path class="st1" d="M180.4,11.7h8.1c2.4,0,4.3,0.6,5.7,1.8c1.4,1.2,2.1,2.8,2.1,4.9c0,2.1-0.7,3.8-2,4.9
			c-1.4,1.2-3.3,1.8-5.7,1.8h-3.2v5.5h-4.8V11.7z M190.6,16.6c-0.5-0.4-1.1-0.6-2-0.6h-3.4v4.8h3.4c0.9,0,1.6-0.2,2-0.6
			c0.4-0.4,0.7-1,0.7-1.8C191.3,17.6,191.1,17,190.6,16.6z"/>
		<path class="st1" d="M214.9,14.2c1.9,1.9,2.9,4.2,2.9,6.9s-1,5.1-2.9,6.9c-1.9,1.9-4.3,2.8-7.2,2.8s-5.3-0.9-7.2-2.8
			c-1.9-1.9-2.9-4.2-2.9-6.9s1-5.1,2.9-6.9c1.9-1.9,4.3-2.8,7.2-2.8S213,12.3,214.9,14.2z M211.4,24.9c0.9-1,1.4-2.2,1.4-3.8
			c0-1.6-0.5-2.9-1.4-3.9c-0.9-1-2.1-1.5-3.7-1.5s-2.7,0.5-3.7,1.5c-0.9,1-1.4,2.3-1.4,3.9c0,1.6,0.5,2.8,1.4,3.8s2.2,1.4,3.7,1.4
			S210.5,25.9,211.4,24.9z"/>
		<path class="st1" d="M220.2,11.7h8.4c2.1,0,3.8,0.5,5,1.4c1.2,0.9,1.8,2.2,1.8,3.7c0,0.9-0.2,1.7-0.6,2.4c-0.4,0.7-1,1.2-1.7,1.6
			c1,0.4,1.7,1,2.2,1.8s0.7,1.7,0.7,2.7c0,1.7-0.6,3-1.8,3.9s-2.9,1.4-5,1.4h-8.9V11.7z M229.9,16.1c-0.4-0.3-0.9-0.5-1.6-0.5h-3.2
			v3.4h3.2c0.7,0,1.2-0.2,1.6-0.5c0.4-0.3,0.6-0.7,0.6-1.3C230.5,16.9,230.3,16.4,229.9,16.1z M230.4,23.3c-0.4-0.3-1-0.5-1.7-0.5
			h-3.7v3.7h3.7c0.7,0,1.3-0.2,1.7-0.5s0.6-0.8,0.6-1.4C231,24.1,230.8,23.7,230.4,23.3z"/>
		<path class="st1" d="M249.5,11.7l7.9,18.9h-5.3l-1.4-3.5h-7.6l-1.4,3.5h-5.1l7.9-18.9H249.5z M244.8,22.8h4.2l-2.1-5.2L244.8,22.8
			z"/>
		<path class="st1" d="M259.3,11.7h4.8v7.1h7.6v-7.1h4.8v18.9h-4.8V23h-7.6v7.5h-4.8V11.7z"/>
	</g>
</g>
</svg>
